# Blender 4.4.1
# www.blender.org
mtllib Stol.mtl
o Cube
v 1.073427 0.276969 -0.964353
v 1.073427 0.373109 -0.964353
v 1.073427 0.276969 1.035647
v 1.073427 0.373109 1.035647
v -0.926573 0.276969 -0.964353
v -0.926573 0.373109 -0.964353
v -0.926573 0.276969 1.035647
v -0.926573 0.373109 1.035647
vn -0.0000 -1.0000 -0.0000
vn -0.0000 -0.0000 1.0000
vn -1.0000 -0.0000 -0.0000
vn -0.0000 1.0000 -0.0000
vn 1.0000 -0.0000 -0.0000
vn -0.0000 -0.0000 -1.0000
vt 0.875000 0.500000
vt 0.625000 0.750000
vt 0.625000 0.500000
vt 0.375000 1.000000
vt 0.375000 0.750000
vt 0.625000 0.000000
vt 0.375000 0.250000
vt 0.375000 0.000000
vt 0.375000 0.500000
vt 0.125000 0.750000
vt 0.125000 0.500000
vt 0.625000 0.250000
vt 0.875000 0.750000
vt 0.625000 1.000000
s 0
usemtl Material
f 5/1/1 1/3/1 3/2/1
f 3/2/2 4/5/2 8/4/2
f 7/6/3 8/8/3 6/7/3
f 2/9/4 6/11/4 8/10/4
f 1/3/5 2/9/5 4/5/5
f 5/12/6 6/7/6 2/9/6
f 5/1/1 3/2/1 7/13/1
f 3/2/2 8/4/2 7/14/2
f 7/6/3 6/7/3 5/12/3
f 2/9/4 8/10/4 4/5/4
f 1/3/5 4/5/5 3/2/5
f 5/12/6 2/9/6 1/3/6
o Cube.001
v 0.869099 -1.113761 0.913396
v 0.883903 0.379002 0.911162
v 0.868161 -1.113611 1.007572
v 0.882965 0.379152 1.005338
v 1.000961 -1.115067 0.914712
v 1.015765 0.377696 0.912477
v 1.000023 -1.114916 1.008888
v 1.014827 0.377846 1.006653
vn -0.9999 0.0099 -0.0100
vn -0.0100 0.0016 0.9999
vn 0.9999 -0.0099 0.0100
vn 0.0100 -0.0016 -0.9999
vn -0.0099 -0.9999 0.0015
vn 0.0099 0.9999 -0.0015
vt 0.625000 0.000000
vt 0.375000 0.250000
vt 0.375000 0.000000
vt 0.625000 0.250000
vt 0.375000 0.500000
vt 0.625000 0.500000
vt 0.375000 0.750000
vt 0.625000 0.750000
vt 0.375000 1.000000
vt 0.125000 0.750000
vt 0.125000 0.500000
vt 0.875000 0.500000
vt 0.625000 1.000000
vt 0.875000 0.750000
s 0
f 10/15/7 9/17/7 11/16/7
f 12/18/8 11/16/8 15/19/8
f 16/20/9 15/19/9 13/21/9
f 14/22/10 13/21/10 9/23/10
f 15/19/11 11/25/11 9/24/11
f 12/26/12 16/20/12 14/22/12
f 10/15/7 11/16/7 12/18/7
f 12/18/8 15/19/8 16/20/8
f 16/20/9 13/21/9 14/22/9
f 14/22/10 9/23/10 10/27/10
f 15/19/11 9/24/11 13/21/11
f 12/26/12 14/22/12 10/28/12
o Cube.002
v 0.880363 -1.113761 -0.948984
v 0.895167 0.379002 -0.951219
v 0.879425 -1.113611 -0.854808
v 0.894229 0.379152 -0.857043
v 1.012225 -1.115067 -0.947668
v 1.027029 0.377696 -0.949903
v 1.011287 -1.114916 -0.853492
v 1.026091 0.377846 -0.855727
vn -0.9999 0.0099 -0.0100
vn -0.0100 0.0016 0.9999
vn 0.9999 -0.0099 0.0100
vn 0.0100 -0.0016 -0.9999
vn -0.0099 -0.9999 0.0015
vn 0.0099 0.9999 -0.0015
vt 0.625000 0.000000
vt 0.375000 0.250000
vt 0.375000 0.000000
vt 0.625000 0.250000
vt 0.375000 0.500000
vt 0.625000 0.500000
vt 0.375000 0.750000
vt 0.625000 0.750000
vt 0.375000 1.000000
vt 0.125000 0.750000
vt 0.125000 0.500000
vt 0.875000 0.500000
vt 0.625000 1.000000
vt 0.875000 0.750000
s 0
f 18/29/13 17/31/13 19/30/13
f 20/32/14 19/30/14 23/33/14
f 24/34/15 23/33/15 21/35/15
f 22/36/16 21/35/16 17/37/16
f 23/33/17 19/39/17 17/38/17
f 20/40/18 24/34/18 22/36/18
f 18/29/13 19/30/13 20/32/13
f 20/32/14 23/33/14 24/34/14
f 24/34/15 21/35/15 22/36/15
f 22/36/16 17/37/16 18/41/16
f 23/33/17 17/38/17 21/35/17
f 20/40/18 22/36/18 18/42/18
o Cube.003
v -0.923226 -1.113761 0.931192
v -0.908422 0.379002 0.928957
v -0.924164 -1.113611 1.025368
v -0.909360 0.379152 1.023133
v -0.791364 -1.115067 0.932508
v -0.776560 0.377696 0.930273
v -0.792302 -1.114916 1.026684
v -0.777498 0.377846 1.024449
vn -0.9999 0.0099 -0.0100
vn -0.0100 0.0016 0.9999
vn 0.9999 -0.0099 0.0100
vn 0.0100 -0.0016 -0.9999
vn -0.0099 -0.9999 0.0015
vn 0.0099 0.9999 -0.0015
vt 0.625000 0.000000
vt 0.375000 0.250000
vt 0.375000 0.000000
vt 0.625000 0.250000
vt 0.375000 0.500000
vt 0.625000 0.500000
vt 0.375000 0.750000
vt 0.625000 0.750000
vt 0.375000 1.000000
vt 0.125000 0.750000
vt 0.125000 0.500000
vt 0.875000 0.500000
vt 0.625000 1.000000
vt 0.875000 0.750000
s 0
f 26/43/19 25/45/19 27/44/19
f 28/46/20 27/44/20 31/47/20
f 32/48/21 31/47/21 29/49/21
f 30/50/22 29/49/22 25/51/22
f 31/47/23 27/53/23 25/52/23
f 28/54/24 32/48/24 30/50/24
f 26/43/19 27/44/19 28/46/19
f 28/46/20 31/47/20 32/48/20
f 32/48/21 29/49/21 30/50/21
f 30/50/22 25/51/22 26/55/22
f 31/47/23 25/52/23 29/49/23
f 28/54/24 30/50/24 26/56/24
o Cube.004
v -0.923226 -1.113761 -0.948984
v -0.908422 0.379002 -0.951219
v -0.924164 -1.113611 -0.854808
v -0.909360 0.379152 -0.857043
v -0.791364 -1.115067 -0.947668
v -0.776560 0.377696 -0.949903
v -0.792302 -1.114916 -0.853492
v -0.777498 0.377846 -0.855727
vn -0.9999 0.0099 -0.0100
vn -0.0100 0.0016 0.9999
vn 0.9999 -0.0099 0.0100
vn 0.0100 -0.0016 -0.9999
vn -0.0099 -0.9999 0.0015
vn 0.0099 0.9999 -0.0015
vt 0.625000 0.000000
vt 0.375000 0.250000
vt 0.375000 0.000000
vt 0.625000 0.250000
vt 0.375000 0.500000
vt 0.625000 0.500000
vt 0.375000 0.750000
vt 0.625000 0.750000
vt 0.375000 1.000000
vt 0.125000 0.750000
vt 0.125000 0.500000
vt 0.875000 0.500000
vt 0.625000 1.000000
vt 0.875000 0.750000
s 0
f 34/57/25 33/59/25 35/58/25
f 36/60/26 35/58/26 39/61/26
f 40/62/27 39/61/27 37/63/27
f 38/64/28 37/63/28 33/65/28
f 39/61/29 35/67/29 33/66/29
f 36/68/30 40/62/30 38/64/30
f 34/57/25 35/58/25 36/60/25
f 36/60/26 39/61/26 40/62/26
f 40/62/27 37/63/27 38/64/27
f 38/64/28 33/65/28 34/69/28
f 39/61/29 33/66/29 37/63/29
f 36/68/30 38/64/30 34/70/30
